<svg width="126" height="28" viewBox="0 0 126 28" fill="none" xmlns="http://www.w3.org/2000/svg">
<rect width="126" height="28" rx="4" fill="#039BF0"/>
<g clip-path="url(#clip0_1_2065)">
<g clip-path="url(#clip1_1_2065)">
<path d="M16.3096 14.955L21.9252 9.20323C21.9854 9.1416 22.4667 8.64859 23.2288 8.38155C24.2918 8.03233 25.3748 8.31992 26.2372 9.20323C27.1196 10.0865 27.3804 11.1753 27.0394 12.264C26.7987 13.0446 26.2973 13.5787 26.2372 13.6403L20.2004 19.8235C19.1575 20.8917 16.5503 22.268 14.1436 19.8235C11.757 17.379 13.1207 14.688 14.1436 13.6403L20.6216 6.98468C20.8622 6.73818 21.2433 6.73818 21.484 6.98468C21.7246 7.23119 21.7246 7.62149 21.484 7.86799L15.026 14.5236C14.9258 14.6058 12.9001 16.7627 15.026 18.9402C17.0918 21.056 19.1174 19.1661 19.338 18.9402L25.3748 12.7365C25.3748 12.7365 25.7157 12.3873 25.8762 11.8942C26.0767 11.2369 25.9363 10.6617 25.3748 10.0865C24.1714 8.85401 23.0082 9.88112 22.7876 10.0865L17.172 15.8178C16.9714 16.0232 16.831 16.3724 17.172 16.7216C17.5129 17.0708 17.8338 16.9065 18.0344 16.7216L21.9252 12.7365C22.1659 12.5105 22.567 12.5105 22.7876 12.7365C23.0283 12.983 23.0283 13.3938 22.7876 13.6403L18.8968 17.6049C18.3553 18.139 17.2522 18.5704 16.3096 17.6049C15.3469 16.6395 15.7681 15.4891 16.3096 14.955Z" fill="white"/>
</g>
</g>
<path d="M36.8081 14.114C36.8081 13.162 37.0227 12.308 37.4521 11.552C37.8814 10.7867 38.4647 10.1893 39.2021 9.76C39.9487 9.33067 40.7747 9.116 41.6801 9.116C42.7441 9.116 43.6727 9.37267 44.4661 9.886C45.2594 10.3993 45.8381 11.1273 46.2021 12.07H44.6761C44.4054 11.482 44.0134 11.0293 43.5001 10.712C42.9961 10.3947 42.3894 10.236 41.6801 10.236C40.9987 10.236 40.3874 10.3947 39.8461 10.712C39.3047 11.0293 38.8801 11.482 38.5721 12.07C38.2641 12.6487 38.1101 13.33 38.1101 14.114C38.1101 14.8887 38.2641 15.57 38.5721 16.158C38.8801 16.7367 39.3047 17.1847 39.8461 17.502C40.3874 17.8193 40.9987 17.978 41.6801 17.978C42.3894 17.978 42.9961 17.824 43.5001 17.516C44.0134 17.1987 44.4054 16.746 44.6761 16.158H46.2021C45.8381 17.0913 45.2594 17.8147 44.4661 18.328C43.6727 18.832 42.7441 19.084 41.6801 19.084C40.7747 19.084 39.9487 18.874 39.2021 18.454C38.4647 18.0247 37.8814 17.432 37.4521 16.676C37.0227 15.92 36.8081 15.066 36.8081 14.114ZM51.9065 11.188C52.4852 11.188 53.0078 11.314 53.4745 11.566C53.9412 11.8087 54.3052 12.1773 54.5665 12.672C54.8372 13.1667 54.9725 13.7687 54.9725 14.478V19H53.7125V14.66C53.7125 13.8947 53.5212 13.3113 53.1385 12.91C52.7558 12.4993 52.2332 12.294 51.5705 12.294C50.8985 12.294 50.3618 12.504 49.9605 12.924C49.5685 13.344 49.3725 13.9553 49.3725 14.758V19H48.0985V8.64H49.3725V12.42C49.6245 12.028 49.9698 11.7247 50.4085 11.51C50.8565 11.2953 51.3558 11.188 51.9065 11.188ZM60.3996 19.126C59.6809 19.126 59.0276 18.9627 58.4396 18.636C57.8609 18.3093 57.4036 17.8473 57.0676 17.25C56.7409 16.6433 56.5776 15.9433 56.5776 15.15C56.5776 14.366 56.7456 13.6753 57.0816 13.078C57.4269 12.4713 57.8936 12.0093 58.4816 11.692C59.0696 11.3653 59.7276 11.202 60.4556 11.202C61.1836 11.202 61.8416 11.3653 62.4296 11.692C63.0176 12.0093 63.4796 12.4667 63.8156 13.064C64.1609 13.6613 64.3336 14.3567 64.3336 15.15C64.3336 15.9433 64.1563 16.6433 63.8016 17.25C63.4563 17.8473 62.9849 18.3093 62.3876 18.636C61.7903 18.9627 61.1276 19.126 60.3996 19.126ZM60.3996 18.006C60.8569 18.006 61.2863 17.8987 61.6876 17.684C62.0889 17.4693 62.4109 17.1473 62.6536 16.718C62.9056 16.2887 63.0316 15.766 63.0316 15.15C63.0316 14.534 62.9103 14.0113 62.6676 13.582C62.4249 13.1527 62.1076 12.8353 61.7156 12.63C61.3236 12.4153 60.8989 12.308 60.4416 12.308C59.9749 12.308 59.5456 12.4153 59.1536 12.63C58.7709 12.8353 58.4629 13.1527 58.2296 13.582C57.9963 14.0113 57.8796 14.534 57.8796 15.15C57.8796 15.7753 57.9916 16.3027 58.2156 16.732C58.4489 17.1613 58.7569 17.4833 59.1396 17.698C59.5223 17.9033 59.9423 18.006 60.3996 18.006ZM69.3547 19.126C68.636 19.126 67.9827 18.9627 67.3947 18.636C66.816 18.3093 66.3587 17.8473 66.0227 17.25C65.696 16.6433 65.5327 15.9433 65.5327 15.15C65.5327 14.366 65.7007 13.6753 66.0367 13.078C66.382 12.4713 66.8487 12.0093 67.4367 11.692C68.0247 11.3653 68.6827 11.202 69.4107 11.202C70.1387 11.202 70.7967 11.3653 71.3847 11.692C71.9727 12.0093 72.4347 12.4667 72.7707 13.064C73.116 13.6613 73.2887 14.3567 73.2887 15.15C73.2887 15.9433 73.1113 16.6433 72.7567 17.25C72.4113 17.8473 71.94 18.3093 71.3427 18.636C70.7453 18.9627 70.0827 19.126 69.3547 19.126ZM69.3547 18.006C69.812 18.006 70.2413 17.8987 70.6427 17.684C71.044 17.4693 71.366 17.1473 71.6087 16.718C71.8607 16.2887 71.9867 15.766 71.9867 15.15C71.9867 14.534 71.8653 14.0113 71.6227 13.582C71.38 13.1527 71.0627 12.8353 70.6707 12.63C70.2787 12.4153 69.854 12.308 69.3967 12.308C68.93 12.308 68.5007 12.4153 68.1087 12.63C67.726 12.8353 67.418 13.1527 67.1847 13.582C66.9513 14.0113 66.8347 14.534 66.8347 15.15C66.8347 15.7753 66.9467 16.3027 67.1707 16.732C67.404 17.1613 67.712 17.4833 68.0947 17.698C68.4773 17.9033 68.8973 18.006 69.3547 18.006ZM77.6797 19.126C77.0917 19.126 76.5644 19.028 76.0977 18.832C75.6311 18.6267 75.2624 18.3467 74.9917 17.992C74.7211 17.628 74.5717 17.2127 74.5437 16.746H75.8597C75.8971 17.1287 76.0744 17.4413 76.3917 17.684C76.7184 17.9267 77.1431 18.048 77.6657 18.048C78.1511 18.048 78.5337 17.9407 78.8137 17.726C79.0937 17.5113 79.2337 17.2407 79.2337 16.914C79.2337 16.578 79.0844 16.3307 78.7857 16.172C78.4871 16.004 78.0251 15.8407 77.3997 15.682C76.8304 15.5327 76.3637 15.3833 75.9997 15.234C75.6451 15.0753 75.3371 14.8467 75.0757 14.548C74.8237 14.24 74.6977 13.8387 74.6977 13.344C74.6977 12.952 74.8144 12.5927 75.0477 12.266C75.2811 11.9393 75.6124 11.6827 76.0417 11.496C76.4711 11.3 76.9611 11.202 77.5117 11.202C78.3611 11.202 79.0471 11.4167 79.5697 11.846C80.0924 12.2753 80.3724 12.8633 80.4097 13.61H79.1357C79.1077 13.2087 78.9444 12.8867 78.6457 12.644C78.3564 12.4013 77.9644 12.28 77.4697 12.28C77.0124 12.28 76.6484 12.378 76.3777 12.574C76.1071 12.77 75.9717 13.0267 75.9717 13.344C75.9717 13.596 76.0511 13.806 76.2097 13.974C76.3777 14.1327 76.5831 14.2633 76.8257 14.366C77.0777 14.4593 77.4231 14.5667 77.8617 14.688C78.4124 14.8373 78.8604 14.9867 79.2057 15.136C79.5511 15.276 79.8451 15.4907 80.0877 15.78C80.3397 16.0693 80.4704 16.4473 80.4797 16.914C80.4797 17.334 80.3631 17.712 80.1297 18.048C79.8964 18.384 79.5651 18.65 79.1357 18.846C78.7157 19.0327 78.2304 19.126 77.6797 19.126ZM89.2782 14.87C89.2782 15.1127 89.2642 15.3693 89.2362 15.64H83.1042C83.1509 16.396 83.4075 16.9887 83.8742 17.418C84.3502 17.838 84.9242 18.048 85.5962 18.048C86.1469 18.048 86.6042 17.922 86.9682 17.67C87.3415 17.4087 87.6029 17.0633 87.7522 16.634H89.1242C88.9189 17.3713 88.5082 17.9733 87.8922 18.44C87.2762 18.8973 86.5109 19.126 85.5962 19.126C84.8682 19.126 84.2149 18.9627 83.6362 18.636C83.0669 18.3093 82.6189 17.8473 82.2922 17.25C81.9655 16.6433 81.8022 15.9433 81.8022 15.15C81.8022 14.3567 81.9609 13.6613 82.2782 13.064C82.5955 12.4667 83.0389 12.0093 83.6082 11.692C84.1869 11.3653 84.8495 11.202 85.5962 11.202C86.3242 11.202 86.9682 11.3607 87.5282 11.678C88.0882 11.9953 88.5175 12.434 88.8162 12.994C89.1242 13.5447 89.2782 14.17 89.2782 14.87ZM87.9622 14.604C87.9622 14.1187 87.8549 13.7033 87.6402 13.358C87.4255 13.0033 87.1315 12.7373 86.7582 12.56C86.3942 12.3733 85.9882 12.28 85.5402 12.28C84.8962 12.28 84.3455 12.4853 83.8882 12.896C83.4402 13.3067 83.1835 13.876 83.1182 14.604H87.9622ZM97.8143 12.378H96.2043V19H94.9303V12.378H93.9363V11.328H94.9303V10.782C94.9303 9.92333 95.1496 9.298 95.5883 8.906C96.0363 8.50467 96.7503 8.304 97.7303 8.304V9.368C97.1703 9.368 96.7736 9.48 96.5403 9.704C96.3163 9.91867 96.2043 10.278 96.2043 10.782V11.328H97.8143V12.378ZM99.9577 10.082C99.715 10.082 99.5097 9.998 99.3417 9.83C99.1737 9.662 99.0897 9.45667 99.0897 9.214C99.0897 8.97133 99.1737 8.766 99.3417 8.598C99.5097 8.43 99.715 8.346 99.9577 8.346C100.191 8.346 100.387 8.43 100.546 8.598C100.714 8.766 100.798 8.97133 100.798 9.214C100.798 9.45667 100.714 9.662 100.546 9.83C100.387 9.998 100.191 10.082 99.9577 10.082ZM100.574 11.328V19H99.2997V11.328H100.574ZM104.019 8.64V19H102.745V8.64H104.019ZM113.19 14.87C113.19 15.1127 113.176 15.3693 113.148 15.64H107.016C107.063 16.396 107.32 16.9887 107.786 17.418C108.262 17.838 108.836 18.048 109.508 18.048C110.059 18.048 110.516 17.922 110.88 17.67C111.254 17.4087 111.515 17.0633 111.664 16.634H113.036C112.831 17.3713 112.42 17.9733 111.804 18.44C111.188 18.8973 110.423 19.126 109.508 19.126C108.78 19.126 108.127 18.9627 107.548 18.636C106.979 18.3093 106.531 17.8473 106.204 17.25C105.878 16.6433 105.714 15.9433 105.714 15.15C105.714 14.3567 105.873 13.6613 106.19 13.064C106.508 12.4667 106.951 12.0093 107.52 11.692C108.099 11.3653 108.762 11.202 109.508 11.202C110.236 11.202 110.88 11.3607 111.44 11.678C112 11.9953 112.43 12.434 112.728 12.994C113.036 13.5447 113.19 14.17 113.19 14.87ZM111.874 14.604C111.874 14.1187 111.767 13.7033 111.552 13.358C111.338 13.0033 111.044 12.7373 110.67 12.56C110.306 12.3733 109.9 12.28 109.452 12.28C108.808 12.28 108.258 12.4853 107.8 12.896C107.352 13.3067 107.096 13.876 107.03 14.604H111.874Z" fill="white"/>
<defs>
<clipPath id="clip0_1_2065">
<rect width="16" height="16" fill="white" transform="translate(12 6)"/>
</clipPath>
<clipPath id="clip1_1_2065">
<rect width="16" height="16" fill="white" transform="translate(12 6)"/>
</clipPath>
</defs>
</svg>
